<svg width="150" height="60" viewBox="0 0 150 60" fill="none" xmlns="http://www.w3.org/2000/svg">
<path d="M71.1755 36.6213H74.5235V29.5478C74.5235 25.8048 72.1985 23.8221 69.393 23.8221C67.533 23.8221 66.138 24.647 65.1305 25.7889H64.681C63.9215 24.7739 62.604 23.8221 60.6355 23.8221C58.853 23.8221 57.4425 24.6311 56.6985 25.5505H56.249V24.1714H53.1335V36.6054H56.4505V30.1025C56.4505 27.8825 57.086 27.1213 59.318 27.1213C61.55 27.1213 62.1545 27.8825 62.1545 30.1025V36.6054H65.5025V30.1025C65.5025 27.8825 66.1225 27.1213 68.339 27.1213C70.571 27.1213 71.1755 27.8825 71.1755 30.1025V36.6213ZM39.819 34.8445C39.23 34.4008 38.951 33.7505 38.951 32.7515C38.951 31.4981 39.323 29.9756 39.943 29.3094C40.377 28.8656 40.997 28.6597 41.834 28.6597C43.0275 28.6597 44.5 28.9766 45.1045 29.6269C45.523 30.0553 45.709 30.6418 45.709 31.4668C45.709 32.6558 45.3835 34.3211 44.655 35.0192C44.2365 35.3998 43.694 35.5745 42.9035 35.5745C41.834 35.5585 40.4855 35.3042 39.819 34.8445ZM45.0735 37.4616L44.934 38.6035L48.0495 39L49.522 26.677L46.4065 26.2804L46.267 27.4695H45.895C45.43 26.6298 44.19 25.4873 41.834 25.4873C38.5635 25.4873 36.1455 27.9616 35.7115 31.3399C35.6677 31.671 35.647 32.0049 35.6495 32.339C35.6495 35.5745 37.7885 38.2228 41.1365 38.6035C41.3225 38.6194 41.5085 38.6353 41.6945 38.6194C43.0895 38.6194 44.1435 38.0004 44.686 37.4616H45.0735ZM115.428 33.8136C112.933 33.8136 112.111 32.9733 112.111 30.42C112.111 27.8666 112.933 26.9938 115.428 26.9938C117.924 26.9938 118.745 27.8666 118.745 30.42C118.745 32.9733 117.924 33.8136 115.428 33.8136ZM99.432 33.8136C96.9365 33.8136 96.115 32.9733 96.115 30.42C96.115 27.8666 96.9365 26.9938 99.432 26.9938C101.927 26.9938 102.749 27.8666 102.749 30.42C102.749 32.9733 101.927 33.8136 99.432 33.8136ZM83.8545 33.8136C81.359 33.8136 80.5375 32.9733 80.5375 30.42C80.5375 27.8666 81.359 26.9938 83.8545 26.9938C86.35 26.9938 87.1715 27.8666 87.1715 30.42C87.1715 32.9733 86.35 33.8136 83.8545 33.8136ZM31.0305 20L29 36.6054L32.3015 37.0173L34.301 20.4125L31.0305 20ZM118.885 35.4317V36.6366H122V24.2027H118.885V25.4083H118.435C117.939 24.7261 116.684 23.838 114.994 23.838C111.29 23.838 108.748 26.7248 108.748 30.42C108.748 34.1158 111.29 36.986 114.994 36.986C116.684 36.986 117.939 36.0973 118.435 35.4157L118.885 35.4317ZM83.8545 23.838C79.7315 23.838 77.174 26.7248 77.174 30.42C77.174 34.1158 79.7315 36.986 83.8545 36.986C87.9775 36.986 90.535 34.1152 90.535 30.42C90.535 26.7242 87.9775 23.838 83.8545 23.838ZM102.935 35.4317V36.6366H106.051V20.1428H102.749V25.3923H102.299C101.803 24.7102 100.688 23.8221 98.998 23.8221C95.2935 23.8221 92.7515 26.7088 92.7515 30.404C92.7515 34.0998 95.2935 36.9701 98.998 36.9701C100.688 36.9701 102.005 36.0814 102.486 35.3998C102.486 35.4317 102.935 35.4317 102.935 35.4317Z" fill="#190928"/>
</svg>
